<?xml version="1.0" encoding="iso-8859-1"?>
<!-- Generator: Adobe Illustrator 19.1.0, SVG Export Plug-In . SVG Version: 6.00 Build 0)  -->
<svg version="1.1" id="Capa_1" xmlns="http://www.w3.org/2000/svg" xmlns:xlink="http://www.w3.org/1999/xlink" x="0px" y="0px"
	 viewBox="0 0 470 470" style="enable-background:new 0 0 470 470;" xml:space="preserve">
<g>
	<path style="fill:#D7B0CD;" d="M405,192.635h-50.804c-4.365,14.39-10.162,23.104-10.551,23.678
		c-1.115,1.647-2.84,2.783-4.793,3.159c-3.655,0.702-7.387,1.019-11.131,1.019c-19.659,0-39.804-8.685-52.82-15.662l17.509,111.477
		c0.452,2.877-0.802,5.756-3.217,7.383c-1.264,0.853-2.727,1.281-4.192,1.281c-1.333,0-2.668-0.354-3.858-1.068l-13.641-8.185V445
		H405V192.635z"/>
	<path style="fill:#D7B0CD;" d="M202.5,397.485c0-4.143,3.358-7.5,7.5-7.5v-15c-4.142,0-7.5-3.357-7.5-7.5v-51.769l-13.641,8.185
		c-2.498,1.498-5.635,1.416-8.051-0.213c-2.415-1.627-3.669-4.506-3.217-7.383L195.1,204.828
		c-13.017,6.976-33.162,15.662-52.82,15.662c-3.747,0-7.474-0.315-11.131-1.019c-1.954-0.376-3.678-1.512-4.793-3.159
		c-0.389-0.574-6.186-9.287-10.551-23.678H65V445h137.5V397.485z"/>
	<path style="fill:#D7B0CD;" d="M65,127.635h50.804c4.365-14.391,10.162-23.105,10.551-23.679c1.115-1.647,2.84-2.783,4.793-3.159
		c27.017-5.192,57.901,10.758,71.351,18.841V25H65V127.635z"/>
	<path style="fill:#D7B0CD;" d="M267.5,119.637c13.45-8.084,44.334-24.035,71.351-18.84c1.954,0.376,3.678,1.512,4.793,3.159
		c0.389,0.574,6.186,9.288,10.551,23.679H405V25H267.5V119.637z"/>
	<path style="fill:#BC6190;" d="M110.967,160.135c0-6.246,0.527-12.101,1.385-17.5H55v35h57.352
		C111.494,172.236,110.967,166.381,110.967,160.135z"/>
	<path style="fill:#BC6190;" d="M359.033,160.135c0,6.246-0.527,12.101-1.385,17.5H415v-35h-57.352
		C358.506,148.033,359.033,153.889,359.033,160.135z"/>
	<path style="fill:#BC6190;" d="M217.5,397.485V455h35V306.716l-17.5-10.5l-17.5,10.5v60.769c0,4.143-3.358,7.5-7.5,7.5v15
		C214.142,389.985,217.5,393.343,217.5,397.485z"/>
	<rect x="217.5" y="15" style="fill:#BC6190;" width="35" height="107.634"/>
	<rect x="212.5" y="137.634" style="fill:#C981A6;" width="45" height="45.002"/>
	<path style="fill:#BC6190;" d="M242.5,197.636v59.834c0,4.143-3.358,7.5-7.5,7.5s-7.5-3.357-7.5-7.5v-59.834h-16.086
		l-16.516,105.148l36.243-21.746c2.375-1.424,5.343-1.424,7.718,0l36.243,21.746l-16.516-105.148H242.5z"/>
	<path style="fill:#BC6190;" d="M197.5,186.082v-18.447H175c-4.142,0-7.5-3.357-7.5-7.5s3.358-7.5,7.5-7.5h22.5v-18.441
		c-9.268-5.823-37.053-21.73-60.297-19.153c-3.421,6.235-11.236,22.907-11.236,45.094c0,8.519,1.132,16.19,2.722,22.769
		c0.081,0.26,0.145,0.527,0.197,0.798c2.575,10.276,6.23,17.785,8.3,21.526C160.49,207.838,188.239,191.917,197.5,186.082z"/>
	<path style="fill:#BC6190;" d="M332.797,205.228c3.421-6.235,11.236-22.907,11.236-45.093c0-8.519-1.132-16.189-2.722-22.767
		c-0.081-0.261-0.145-0.528-0.198-0.8c-2.575-10.275-6.229-17.784-8.299-21.524c-23.247-2.598-51.039,13.32-60.315,19.15v18.442H295
		c4.142,0,7.5,3.357,7.5,7.5s-3.358,7.5-7.5,7.5h-22.5v18.441C281.773,191.904,309.553,207.81,332.797,205.228z"/>
	<path style="fill:#3E2C3A;" d="M422.5,127.635H420V17.5c0-4.143-3.358-7.5-7.5-7.5h-145V7.5c0-4.143-3.358-7.5-7.5-7.5h-50
		c-4.142,0-7.5,3.357-7.5,7.5V10h-145c-4.142,0-7.5,3.357-7.5,7.5v110.135h-2.5c-4.142,0-7.5,3.357-7.5,7.5v50
		c0,4.143,3.358,7.5,7.5,7.5H50V452.5c0,4.143,3.358,7.5,7.5,7.5h145v2.5c0,4.143,3.358,7.5,7.5,7.5h50c4.142,0,7.5-3.357,7.5-7.5
		V460h145c4.142,0,7.5-3.357,7.5-7.5V192.635h2.5c4.142,0,7.5-3.357,7.5-7.5v-50C430,130.992,426.642,127.635,422.5,127.635z
		 M65,192.635h50.804c4.365,14.39,10.162,23.104,10.551,23.678c1.115,1.647,2.84,2.783,4.793,3.159
		c3.657,0.703,7.385,1.019,11.131,1.019c19.658,0,39.803-8.686,52.82-15.662l-17.509,111.477c-0.452,2.877,0.802,5.756,3.217,7.383
		c2.416,1.629,5.553,1.711,8.051,0.213l13.641-8.185v51.769c0,4.143,3.358,7.5,7.5,7.5s7.5-3.357,7.5-7.5v-60.769l17.5-10.5
		l17.5,10.5V455h-35v-57.515c0-4.143-3.358-7.5-7.5-7.5s-7.5,3.357-7.5,7.5V445H65V192.635z M415,142.635v35h-57.352
		c0.858-5.399,1.385-11.254,1.385-17.5s-0.527-12.101-1.385-17.5H415z M55,177.635v-35h57.352c-0.858,5.399-1.385,11.254-1.385,17.5
		s0.527,12.101,1.385,17.5H55z M238.859,281.038c-2.375-1.424-5.343-1.424-7.718,0l-36.243,21.746l16.516-105.148H227.5v59.834
		c0,4.143,3.358,7.5,7.5,7.5s7.5-3.357,7.5-7.5v-59.834h16.086l16.516,105.148L238.859,281.038z M128.886,183.701
		c-0.052-0.271-0.116-0.538-0.197-0.798c-1.59-6.579-2.722-14.249-2.722-22.769c0-22.187,7.815-38.858,11.236-45.094
		c23.244-2.577,51.029,13.329,60.297,19.153v18.441H175c-4.142,0-7.5,3.357-7.5,7.5s3.358,7.5,7.5,7.5h22.5v18.447
		c-9.261,5.835-37.01,21.756-60.314,19.144C135.116,201.486,131.461,193.977,128.886,183.701z M257.5,137.634v45.002h-45v-45.002
		H257.5z M272.5,167.635H295c4.142,0,7.5-3.357,7.5-7.5s-3.358-7.5-7.5-7.5h-22.5v-18.442c9.276-5.83,37.068-21.748,60.315-19.15
		c2.07,3.74,5.724,11.249,8.299,21.524c0.053,0.272,0.117,0.54,0.198,0.8c1.589,6.579,2.722,14.249,2.722,22.767
		c0,22.186-7.815,38.857-11.236,45.093c-23.244,2.583-51.024-13.324-60.297-19.152V167.635z M252.5,122.634h-35V15h35V122.634z
		 M405,127.635h-50.804c-4.365-14.391-10.162-23.105-10.551-23.679c-1.115-1.647-2.84-2.783-4.793-3.159
		c-27.017-5.195-57.901,10.756-71.351,18.84V25H405V127.635z M202.5,119.638c-13.45-8.083-44.334-24.033-71.351-18.841
		c-1.954,0.376-3.678,1.512-4.793,3.159c-0.389,0.574-6.186,9.288-10.551,23.679H65V25h137.5V119.638z M267.5,315.716l13.641,8.185
		c1.19,0.714,2.525,1.068,3.858,1.068c1.465,0,2.928-0.429,4.192-1.281c2.415-1.627,3.669-4.506,3.217-7.383L274.9,204.829
		c13.016,6.976,33.161,15.662,52.82,15.662c3.744,0,7.476-0.316,11.131-1.019c1.954-0.376,3.678-1.512,4.793-3.159
		c0.389-0.574,6.186-9.287,10.551-23.678H405V445H267.5V315.716z"/>
</g>
<g>
</g>
<g>
</g>
<g>
</g>
<g>
</g>
<g>
</g>
<g>
</g>
<g>
</g>
<g>
</g>
<g>
</g>
<g>
</g>
<g>
</g>
<g>
</g>
<g>
</g>
<g>
</g>
<g>
</g>
</svg>
